<?xml version="1.0" encoding="UTF-8"?> <svg xmlns="http://www.w3.org/2000/svg" xmlns:xlink="http://www.w3.org/1999/xlink" width="1500" zoomAndPan="magnify" viewBox="0 0 1125 225" height="300" preserveAspectRatio="xMidYMid meet" version="1.0"><defs><clipPath id="486954d5a2"><path d="M 0 76.511719 L 1125 76.511719 L 1125 119.496094 L 0 119.496094 Z M 0 76.511719 " clip-rule="nonzero"></path></clipPath><clipPath id="e9fea11552"><path d="M -26.636719 100.238281 C -11.484375 95.058594 -1.988281 92.453125 6.347656 90.855469 C 14.539062 89.285156 23.167969 88.277344 32.085938 87.332031 C 41.148438 86.382812 51.007812 85.730469 60.359375 85.226562 C 69.351562 84.785156 78.121094 84.636719 86.96875 84.457031 C 95.738281 84.28125 104.292969 84.191406 113.210938 84.222656 C 122.492188 84.25 132.351562 84.339844 141.703125 84.664062 C 150.984375 84.960938 158.304688 85.703125 169.035156 86.117188 C 184.042969 86.679688 208.621094 87.566406 223.554688 87.332031 C 234.140625 87.125 239.867188 86.621094 250.453125 85.789062 C 265.820312 84.605469 291.195312 81.4375 306.710938 80.195312 C 317.511719 79.367188 325.199219 78.921875 334.40625 78.597656 C 343.324219 78.269531 352.023438 78.269531 360.941406 78.242188 C 370.074219 78.210938 377.832031 78.269531 388.488281 78.449219 C 403.132812 78.714844 425.828125 79.335938 440.835938 79.929688 C 452.144531 80.34375 461.0625 80.816406 470.632812 81.410156 C 479.695312 81.972656 486.4375 82.769531 496.949219 83.332031 C 512.316406 84.164062 538.707031 85.082031 554.441406 85.289062 C 565.316406 85.4375 572.925781 85.375 582.132812 85.082031 C 591.34375 84.785156 598.953125 84.339844 609.683594 83.570312 C 624.980469 82.503906 649.558594 79.871094 665 78.773438 C 676.019531 77.972656 684.066406 77.53125 693.492188 77.203125 C 702.628906 76.910156 709.949219 76.910156 720.753906 76.847656 C 736.558594 76.730469 759.394531 76.375 778.894531 76.820312 C 798.761719 77.265625 822.613281 79.011719 838.78125 79.574219 C 849.726562 79.929688 853.644531 79.632812 866.328125 80.136719 C 895.691406 81.351562 972.757812 87.0625 1010.820312 88.871094 C 1035.613281 90.023438 1055.480469 90.558594 1072.300781 90.941406 C 1083.972656 91.210938 1090.132812 91.269531 1102.023438 91.296875 C 1120.074219 91.296875 1157.414062 90.320312 1170.027344 90.675781 C 1174.886719 90.792969 1176.914062 90.914062 1180.175781 91.355469 C 1183.367188 91.773438 1186.558594 92.480469 1189.238281 93.3125 C 1191.921875 94.140625 1194.460938 95.207031 1196.34375 96.359375 C 1198.230469 97.515625 1199.753906 98.847656 1200.621094 100.179688 C 1201.566406 101.511719 1201.925781 102.964844 1201.78125 104.355469 C 1201.566406 105.71875 1200.839844 107.167969 1199.535156 108.441406 C 1198.300781 109.742188 1196.417969 110.988281 1194.242188 112.054688 C 1192.066406 113.117188 1189.3125 114.066406 1186.414062 114.777344 C 1183.511719 115.488281 1180.175781 116.050781 1176.84375 116.347656 C 1173.582031 116.640625 1169.957031 116.703125 1166.621094 116.554688 C 1163.214844 116.40625 1159.734375 116.019531 1156.6875 115.429688 C 1153.644531 114.867188 1150.597656 114.035156 1148.132812 113.089844 C 1145.667969 112.140625 1143.492188 110.957031 1141.898438 109.742188 C 1140.375 108.53125 1139.214844 107.136719 1138.636719 105.746094 C 1138.054688 104.382812 1138.054688 102.933594 1138.636719 101.570312 C 1139.214844 100.179688 1140.304688 98.789062 1141.898438 97.574219 C 1143.492188 96.359375 1145.667969 95.175781 1148.132812 94.230469 C 1150.597656 93.28125 1153.570312 92.453125 1156.6875 91.859375 C 1159.734375 91.296875 1163.214844 90.882812 1166.546875 90.734375 C 1169.957031 90.585938 1173.507812 90.675781 1176.84375 90.972656 C 1180.175781 91.269531 1183.511719 91.800781 1186.414062 92.511719 C 1189.3125 93.222656 1192.066406 94.199219 1194.242188 95.234375 C 1196.417969 96.300781 1198.300781 97.546875 1199.535156 98.847656 C 1200.839844 100.121094 1201.566406 101.570312 1201.78125 102.933594 C 1201.925781 104.324219 1201.566406 105.777344 1200.695312 107.109375 C 1199.753906 108.441406 1198.230469 109.800781 1196.34375 110.929688 C 1194.460938 112.082031 1191.996094 113.148438 1189.238281 113.976562 C 1186.558594 114.835938 1183.367188 115.515625 1180.175781 115.960938 C 1176.988281 116.40625 1174.886719 116.464844 1170.027344 116.640625 C 1158.429688 117.085938 1126.09375 117.175781 1110.144531 117.234375 C 1099.488281 117.265625 1092.671875 117.265625 1083.683594 117.144531 C 1074.328125 117.027344 1066.210938 116.847656 1055.191406 116.523438 C 1039.675781 116.050781 1022.203125 115.578125 999.582031 114.449219 C 963.839844 112.703125 890.617188 107.316406 861.980469 106.070312 C 849.148438 105.507812 845.015625 105.6875 833.921875 105.300781 C 817.539062 104.738281 793.394531 103.113281 773.460938 102.695312 C 754.101562 102.28125 731.773438 102.609375 716.113281 102.757812 C 705.238281 102.875 699.363281 102.726562 688.492188 103.289062 C 672.324219 104.117188 648.617188 106.960938 628.894531 108.324219 C 609.683594 109.683594 587.136719 111.164062 571.695312 111.492188 C 561.253906 111.699219 554.148438 111.429688 545.378906 111.105469 C 536.53125 110.808594 527.90625 109.980469 518.84375 109.59375 C 509.417969 109.210938 500.9375 109.359375 489.84375 108.855469 C 474.691406 108.144531 454.753906 106.160156 436.484375 105.300781 C 417.34375 104.445312 393.203125 104 377.542969 103.792969 C 367.03125 103.644531 360.289062 103.675781 351.371094 103.761719 C 342.164062 103.851562 333.972656 103.675781 323.3125 104.296875 C 308.667969 105.15625 286.703125 108.175781 272.128906 109.417969 C 261.472656 110.304688 253.933594 110.867188 244.144531 111.3125 C 233.488281 111.785156 221.234375 112.023438 210.648438 112.023438 C 201.007812 112.023438 192.234375 111.757812 183.101562 111.371094 C 173.894531 111.015625 166.425781 110.21875 155.695312 109.714844 C 140.542969 109.003906 115.605469 108.144531 100.378906 107.9375 C 89.722656 107.820312 82.472656 107.878906 73.121094 108.085938 C 63.1875 108.324219 51.949219 108.410156 42.453125 109.386719 C 33.535156 110.277344 24.617188 111.84375 17.660156 113.472656 C 11.859375 114.835938 6.855469 117.265625 2.867188 118.183594 C 0.546875 118.683594 -1.046875 118.863281 -3.148438 119.070312 C -5.25 119.277344 -7.425781 119.367188 -9.527344 119.367188 C -11.632812 119.335938 -13.878906 119.21875 -15.910156 119.011719 C -17.9375 118.773438 -20.042969 118.449219 -21.855469 118.035156 C -23.738281 117.617188 -25.550781 117.117188 -27.144531 116.523438 C -28.667969 115.929688 -30.117188 115.25 -31.351562 114.539062 C -32.511719 113.828125 -33.527344 113.03125 -34.25 112.199219 C -34.976562 111.371094 -35.484375 110.511719 -35.699219 109.65625 C -35.917969 108.796875 -35.917969 107.878906 -35.628906 107.019531 C -35.339844 106.160156 -34.757812 105.300781 -34.035156 104.472656 C -33.234375 103.675781 -32.148438 102.875 -30.917969 102.164062 C -29.683594 101.453125 -26.636719 100.238281 -26.636719 100.238281 " clip-rule="nonzero"></path></clipPath><clipPath id="8685d8e955"><path d="M 0 83 L 1125 83 L 1125 132 L 0 132 Z M 0 83 " clip-rule="nonzero"></path></clipPath><clipPath id="7f9e806f38"><path d="M -34.6875 118.191406 C -28.886719 110.851562 -22.433594 105.285156 -15.109375 102.410156 C -8.367188 99.777344 1.273438 98.535156 9.753906 96.933594 C 18.164062 95.335938 26.792969 93.855469 35.566406 92.789062 C 44.335938 91.695312 52.023438 90.449219 62.535156 90.480469 C 77.46875 90.539062 98.132812 93.945312 116.546875 95.367188 C 135.613281 96.875 155.839844 98.59375 174.910156 99.273438 C 193.179688 99.925781 213.621094 100.042969 228.773438 99.570312 C 239.941406 99.242188 248.566406 98.886719 257.703125 97.617188 C 266.765625 96.34375 274.085938 93.441406 283.292969 91.929688 C 292.863281 90.363281 303.882812 89.472656 314.035156 88.527344 C 323.820312 87.609375 333.390625 86.71875 343.105469 86.214844 C 352.675781 85.714844 360.796875 85.566406 371.960938 85.445312 C 387.476562 85.238281 405.816406 84.945312 427.347656 85.652344 C 457.800781 86.660156 511.519531 91.308594 537.257812 92.550781 C 551.03125 93.234375 558.574219 93.203125 569.230469 93.707031 C 579.886719 94.179688 590.90625 95.070312 601.273438 95.484375 C 610.84375 95.867188 619.761719 96.074219 629.257812 96.195312 C 639.191406 96.3125 649.777344 96.492188 659.636719 96.195312 C 669.277344 95.898438 676.964844 95.425781 687.765625 94.449219 C 702.988281 93.085938 726.335938 89.621094 741.703125 88.050781 C 753.015625 86.898438 761.714844 86.1875 771.355469 85.476562 C 780.417969 84.796875 788.609375 84.203125 797.820312 83.816406 C 807.605469 83.402344 818.191406 83.109375 828.484375 83.167969 C 839.070312 83.253906 849.65625 83.816406 860.386719 84.292969 C 871.332031 84.796875 882.640625 85.359375 893.515625 86.128906 C 904.101562 86.898438 914.832031 87.609375 924.765625 88.882812 C 934.1875 90.09375 942.671875 92.257812 951.660156 93.5 C 960.144531 94.65625 968.117188 95.484375 977.035156 96.164062 C 986.535156 96.90625 997.261719 97.585938 1006.976562 97.617188 C 1016.183594 97.617188 1025.03125 97.347656 1033.949219 96.371094 C 1043.445312 95.304688 1051.710938 92.847656 1062.078125 91.191406 C 1074.113281 89.296875 1093.105469 86.1875 1102.097656 85.859375 C 1106.589844 85.683594 1109.054688 86.039062 1112.320312 86.421875 C 1115.507812 86.839844 1118.769531 87.488281 1121.453125 88.320312 C 1124.207031 89.117188 1126.746094 90.15625 1128.703125 91.28125 C 1130.660156 92.40625 1132.257812 93.738281 1133.269531 95.039062 C 1134.214844 96.371094 1134.722656 97.824219 1134.574219 99.214844 C 1134.503906 100.605469 1133.777344 102.027344 1132.617188 103.328125 C 1131.457031 104.632812 1129.644531 105.90625 1127.542969 106.972656 C 1125.367188 108.039062 1122.6875 109.015625 1119.859375 109.753906 C 1117.03125 110.496094 1113.695312 111.085938 1110.433594 111.414062 C 1107.097656 111.738281 1103.546875 111.855469 1100.140625 111.738281 C 1096.804688 111.621094 1093.324219 111.265625 1090.207031 110.703125 C 1087.089844 110.140625 1084.117188 109.339844 1081.578125 108.421875 C 1079.042969 107.503906 1076.792969 106.351562 1075.199219 105.136719 C 1073.53125 103.953125 1072.300781 102.558594 1071.648438 101.199219 C 1071.066406 99.835938 1070.996094 98.386719 1071.429688 97.023438 C 1071.863281 95.632812 1072.953125 94.238281 1074.472656 92.996094 C 1075.996094 91.78125 1078.097656 90.570312 1080.492188 89.621094 C 1082.882812 88.644531 1085.855469 87.785156 1088.902344 87.164062 C 1091.875 86.570312 1095.355469 86.128906 1098.6875 85.949219 C 1102.023438 85.773438 1105.648438 85.832031 1108.984375 86.097656 C 1112.320312 86.363281 1115.652344 86.867188 1118.625 87.550781 C 1121.527344 88.230469 1124.355469 89.175781 1126.601562 90.183594 C 1128.847656 91.21875 1130.734375 92.464844 1132.039062 93.738281 C 1133.414062 95.011719 1134.285156 96.429688 1134.503906 97.824219 C 1134.792969 99.183594 1134.503906 100.664062 1133.632812 101.996094 C 1132.835938 103.328125 1131.386719 104.691406 1129.574219 105.847656 C 1127.6875 107 1125.296875 108.097656 1122.6875 108.957031 C 1120.003906 109.8125 1116.886719 110.523438 1113.695312 111 C 1110.507812 111.472656 1103.765625 112.003906 1103.617188 111.769531 C 1103.328125 111.441406 1121.742188 107.949219 1121.671875 107.917969 C 1121.671875 107.890625 1097.3125 112.953125 1086.4375 115.023438 C 1077.15625 116.800781 1069.472656 118.339844 1060.410156 119.703125 C 1051.058594 121.066406 1041.34375 122.546875 1031.191406 123.136719 C 1020.679688 123.757812 1008.644531 123.460938 998.277344 123.195312 C 989.070312 122.929688 981.097656 122.425781 972.179688 121.773438 C 962.535156 121.066406 952.167969 120.292969 942.453125 119.023438 C 932.519531 117.75 923.167969 115.351562 913.019531 114.078125 C 902.871094 112.804688 891.777344 112.09375 881.554688 111.382812 C 871.765625 110.730469 862.558594 110.289062 852.917969 109.902344 C 843.277344 109.519531 833.269531 109.042969 823.699219 109.042969 C 814.421875 109.042969 805.503906 109.371094 796.441406 109.84375 C 787.160156 110.347656 777.738281 111.207031 768.675781 112.003906 C 759.972656 112.773438 751.78125 113.605469 743.226562 114.550781 C 734.527344 115.558594 725.683594 116.832031 716.910156 117.835938 C 708.210938 118.84375 699.65625 119.878906 690.808594 120.5625 C 681.964844 121.242188 674.644531 121.65625 663.914062 121.894531 C 647.820312 122.277344 619.6875 122.101562 603.59375 121.597656 C 592.863281 121.242188 587.5 120.5625 576.769531 120 C 560.820312 119.199219 533.488281 118.488281 517.101562 117.542969 C 505.429688 116.859375 498.832031 116.121094 487.378906 115.320312 C 471.574219 114.253906 447.359375 112.539062 431.191406 111.828125 C 419.011719 111.292969 409.226562 111.144531 399.003906 111.027344 C 389.648438 110.878906 381.238281 110.820312 372.105469 111 C 362.753906 111.144531 352.964844 111.5 343.613281 112.035156 C 334.40625 112.539062 325.5625 113.011719 316.644531 114.136719 C 307.292969 115.292969 298.375 117.542969 288.804688 119.023438 C 279.089844 120.53125 268.722656 122.101562 258.933594 123.019531 C 249.871094 123.878906 242.765625 124.320312 232.328125 124.558594 C 217.320312 124.914062 192.671875 124.527344 177.375 124.054688 C 166.28125 123.730469 159.683594 123.375 148.734375 122.605469 C 133.800781 121.566406 110.382812 119.703125 95.957031 117.867188 C 85.515625 116.535156 78.484375 113.75 69.640625 113.484375 C 61.15625 113.21875 52.457031 114.90625 44.046875 115.941406 C 35.710938 116.980469 24.328125 117.628906 19.398438 119.703125 C 15.339844 121.390625 15.773438 124.855469 13.742188 126.421875 C 12.582031 127.371094 11.421875 127.875 9.972656 128.496094 C 8.523438 129.148438 6.855469 129.710938 5.117188 130.183594 C 3.304688 130.628906 1.347656 131.042969 -0.683594 131.308594 C -2.640625 131.605469 -4.816406 131.78125 -6.847656 131.84375 C -8.949219 131.929688 -11.195312 131.902344 -13.226562 131.78125 C -15.328125 131.632812 -17.429688 131.398438 -19.390625 131.070312 C -21.347656 130.746094 -23.230469 130.300781 -24.972656 129.800781 C -26.636719 129.265625 -28.234375 128.671875 -29.609375 127.992188 C -30.917969 127.339844 -32.074219 126.601562 -33.019531 125.800781 C -33.960938 125.03125 -34.6875 124.203125 -35.121094 123.34375 C -35.554688 122.515625 -35.773438 121.628906 -35.699219 120.769531 C -35.628906 119.910156 -34.6875 118.191406 -34.6875 118.191406 " clip-rule="nonzero"></path></clipPath><clipPath id="b2243c7a08"><path d="M 0 94.394531 L 1125 94.394531 L 1125 138.398438 L 0 138.398438 Z M 0 94.394531 " clip-rule="nonzero"></path></clipPath><clipPath id="3781217199"><path d="M -15.625 118.898438 C -3.664062 115.375 4.890625 113.421875 14.460938 111.972656 C 28.089844 109.929688 51.433594 107.972656 66.296875 106.847656 C 77.390625 105.988281 85.945312 105.425781 95.515625 105.28125 C 104.792969 105.132812 113.710938 105.425781 122.992188 105.929688 C 132.777344 106.464844 142.785156 107.886719 152.789062 108.476562 C 162.9375 109.097656 171.78125 109.484375 183.457031 109.632812 C 199.042969 109.78125 223.257812 109.367188 238.046875 108.742188 C 248.34375 108.300781 255.519531 107.796875 264 106.96875 C 272.484375 106.136719 279.082031 104.894531 289.015625 103.828125 C 303.296875 102.289062 327.003906 100.128906 341.792969 99.003906 C 352.378906 98.203125 360.0625 97.671875 369.125 97.34375 C 377.96875 97.019531 386.597656 96.902344 395.441406 96.960938 C 404.578125 96.988281 413.929688 97.195312 423.210938 97.609375 C 432.5625 98.027344 442.203125 98.765625 451.484375 99.445312 C 460.546875 100.128906 467.652344 100.957031 478.308594 101.726562 C 493.894531 102.851562 514.773438 104.421875 536.015625 105.28125 C 562.042969 106.34375 601.847656 106.9375 623.160156 107.085938 C 635.484375 107.175781 642.664062 107.292969 652.449219 106.878906 C 662.457031 106.433594 672.53125 105.042969 682.464844 104.449219 C 692.253906 103.859375 701.894531 104.214844 711.539062 103.265625 C 721.757812 102.289062 731.765625 99.742188 742.132812 98.527344 C 752.28125 97.34375 762.648438 96.664062 772.945312 96.011719 C 783.09375 95.390625 791.722656 95.003906 803.464844 94.769531 C 819.488281 94.414062 844.355469 94.621094 860.304688 94.679688 C 871.976562 94.738281 880.75 94.589844 890.535156 94.976562 C 899.960938 95.359375 908.953125 96.160156 918.160156 96.929688 C 927.4375 97.699219 936.644531 98.617188 946 99.652344 C 955.714844 100.75 965.71875 102.46875 975.289062 103.382812 C 984.207031 104.273438 992.46875 104.863281 1001.605469 105.191406 C 1011.246094 105.515625 1021.90625 105.339844 1031.765625 105.21875 C 1041.261719 105.132812 1048.730469 105.367188 1059.675781 104.570312 C 1076.0625 103.355469 1107.960938 97.90625 1119.707031 96.929688 C 1124.492188 96.546875 1126.59375 96.457031 1129.929688 96.546875 C 1133.335938 96.632812 1136.816406 96.960938 1139.933594 97.492188 C 1143.050781 98.027344 1146.09375 98.796875 1148.632812 99.714844 C 1151.171875 100.601562 1153.488281 101.726562 1155.15625 102.941406 C 1156.898438 104.125 1158.128906 105.488281 1158.855469 106.847656 C 1159.507812 108.179688 1159.652344 109.660156 1159.289062 111.023438 C 1158.855469 112.386719 1157.839844 113.804688 1156.390625 115.050781 C 1154.941406 116.292969 1152.910156 117.476562 1150.519531 118.484375 C 1148.199219 119.460938 1145.296875 120.351562 1142.253906 120.972656 C 1139.28125 121.59375 1135.875 122.039062 1132.539062 122.246094 C 1129.203125 122.453125 1125.578125 122.453125 1122.242188 122.183594 C 1118.90625 121.949219 1115.574219 121.476562 1112.601562 120.824219 C 1109.628906 120.140625 1106.800781 119.253906 1104.480469 118.21875 C 1102.234375 117.210938 1100.203125 115.996094 1098.898438 114.722656 C 1097.519531 113.480469 1096.578125 112.058594 1096.214844 110.699219 C 1095.925781 109.304688 1096.144531 107.855469 1096.941406 106.492188 C 1097.738281 105.160156 1099.117188 103.800781 1100.855469 102.644531 C 1102.667969 101.460938 1104.988281 100.363281 1107.597656 99.476562 C 1110.207031 98.589844 1113.324219 97.847656 1116.441406 97.375 C 1119.632812 96.871094 1123.113281 96.574219 1126.519531 96.515625 C 1129.855469 96.457031 1133.480469 96.632812 1136.671875 97.019531 C 1139.933594 97.402344 1143.195312 98.054688 1145.949219 98.824219 C 1148.707031 99.625 1151.316406 100.660156 1153.273438 101.757812 C 1155.300781 102.882812 1156.96875 104.183594 1157.984375 105.488281 C 1159 106.789062 1159.507812 108.242188 1159.507812 109.632812 C 1159.433594 110.992188 1158.855469 112.445312 1157.695312 113.746094 C 1156.609375 115.050781 1154.867188 116.351562 1152.765625 117.417969 C 1150.734375 118.515625 1148.050781 119.519531 1145.226562 120.261719 C 1142.398438 121.03125 1140.441406 121.269531 1135.875 121.976562 C 1124.417969 123.726562 1090.707031 128.34375 1074.25 129.707031 C 1063.738281 130.59375 1056.632812 130.625 1047.785156 130.859375 C 1038.941406 131.097656 1030.242188 131.125 1021.179688 131.15625 C 1011.683594 131.1875 1001.316406 131.421875 991.890625 131.066406 C 982.753906 130.773438 974.199219 130.148438 965.429688 129.261719 C 956.4375 128.375 948.027344 126.773438 938.605469 125.679688 C 928.453125 124.496094 916.78125 123.308594 906.558594 122.453125 C 897.207031 121.652344 891.625 121 879.445312 120.617188 C 854.867188 119.816406 792.519531 118.394531 767.214844 120.914062 C 753.222656 122.304688 746.625 125.886719 736.332031 127.308594 C 726.90625 128.609375 717.554688 128.875 708.058594 129.410156 C 698.558594 129.941406 689.28125 129.972656 679.421875 130.503906 C 668.835938 131.097656 657.019531 132.519531 646.433594 132.902344 C 636.71875 133.257812 630.195312 133.023438 618.375 132.902344 C 598.003906 132.695312 560.667969 132.191406 535.4375 131.214844 C 514.121094 130.386719 493.460938 129.113281 476.714844 127.871094 C 464.097656 126.953125 454.167969 125.707031 443.726562 124.878906 C 434.375 124.140625 426.109375 123.457031 417.121094 123.074219 C 407.984375 122.660156 398.558594 122.570312 389.351562 122.539062 C 380.289062 122.539062 371.371094 122.480469 362.238281 122.984375 C 352.667969 123.519531 342.589844 125 333.164062 125.769531 C 324.394531 126.507812 316.199219 126.65625 307.429688 127.542969 C 297.859375 128.492188 287.855469 130.503906 278.140625 131.453125 C 268.859375 132.371094 261.464844 132.816406 250.445312 133.257812 C 234.421875 133.878906 207.089844 134.265625 191.066406 134.085938 C 180.191406 133.96875 172.871094 133.496094 163.589844 133.050781 C 154.09375 132.605469 144.378906 132.132812 134.882812 131.363281 C 125.3125 130.5625 116.105469 128.667969 106.390625 128.34375 C 96.527344 127.988281 87.46875 128.730469 75.941406 129.46875 C 60.640625 130.417969 34.253906 132.222656 22.941406 134.148438 C 17.070312 135.152344 14.097656 136.8125 10.546875 137.464844 C 8.226562 137.90625 6.484375 138.054688 4.457031 138.171875 C 2.351562 138.320312 0.179688 138.351562 -1.925781 138.292969 C -4.027344 138.234375 -6.203125 138.027344 -8.160156 137.757812 C -10.1875 137.492188 -12.148438 137.109375 -13.960938 136.632812 C -15.699219 136.191406 -17.4375 135.628906 -18.890625 135.003906 C -20.339844 134.382812 -21.644531 133.671875 -22.730469 132.902344 C -23.746094 132.164062 -24.617188 131.335938 -25.195312 130.503906 C -25.777344 129.707031 -26.140625 128.816406 -26.210938 127.957031 C -26.285156 127.101562 -26.140625 126.210938 -25.703125 125.351562 C -25.269531 124.523438 -24.542969 123.664062 -23.675781 122.894531 C -22.730469 122.097656 -21.570312 121.355469 -20.265625 120.675781 C -18.890625 120.023438 -15.625 118.898438 -15.625 118.898438 " clip-rule="nonzero"></path></clipPath><clipPath id="84544f175e"><path d="M 0 105 L 1125 105 L 1125 148.296875 L 0 148.296875 Z M 0 105 " clip-rule="nonzero"></path></clipPath><clipPath id="b4f17a3342"><path d="M 2.570312 127.128906 C 16.851562 125.292969 28.886719 124.789062 37.296875 123.457031 C 45.707031 122.125 52.8125 119.550781 61.003906 118.039062 C 69.125 116.53125 77.535156 115.136719 86.089844 114.398438 C 94.5 113.65625 103.054688 113.507812 112.117188 113.570312 C 122.050781 113.628906 133.503906 114.25 143.4375 114.960938 C 152.570312 115.613281 160.761719 117.003906 169.609375 117.535156 C 178.453125 118.097656 186.066406 118.070312 196.648438 118.1875 C 211.800781 118.335938 236.523438 118.277344 251.605469 117.980469 C 262.261719 117.773438 268.277344 117.714844 278.644531 117.003906 C 293.292969 115.996094 315.691406 113.421875 330.917969 111.613281 C 342.953125 110.195312 352.523438 108.476562 362.960938 107.382812 C 372.53125 106.34375 381.738281 105.25 391.09375 105.042969 C 400.082031 104.863281 407.550781 105.457031 417.988281 106.078125 C 432.777344 106.9375 453.296875 109.039062 470.984375 110.402344 C 488.601562 111.734375 508.613281 113.273438 523.835938 114.160156 C 535.363281 114.84375 544.644531 115.257812 554.433594 115.550781 C 563.566406 115.847656 571.90625 115.9375 580.675781 116.027344 C 589.523438 116.085938 598.292969 116.144531 607.140625 115.996094 C 616.054688 115.847656 625.046875 115.523438 633.964844 115.167969 C 642.734375 114.8125 651.289062 114.21875 660.136719 113.894531 C 669.199219 113.597656 678.332031 113.71875 687.683594 113.273438 C 697.617188 112.800781 708.417969 111.882812 718.207031 111.023438 C 727.34375 110.222656 735.75 109.007812 744.597656 108.296875 C 753.296875 107.617188 760.402344 107.203125 770.914062 106.847656 C 786.429688 106.316406 812.964844 105.929688 828.914062 106.078125 C 840.078125 106.167969 846.386719 106.285156 857.550781 106.964844 C 873.644531 107.945312 900.398438 110.667969 915.910156 112.238281 C 926.421875 113.273438 931.714844 114.308594 942.082031 115.109375 C 956.582031 116.234375 980.363281 117.121094 995.226562 117.476562 C 1005.953125 117.714844 1013.785156 117.566406 1022.992188 117.476562 C 1032.054688 117.359375 1040.828125 117.179688 1050.035156 116.824219 C 1059.53125 116.46875 1069.679688 115.996094 1079.179688 115.285156 C 1088.386719 114.574219 1097.519531 113.421875 1106.148438 112.652344 C 1113.90625 112 1122.460938 111.113281 1128.550781 110.933594 C 1132.609375 110.816406 1135.511719 110.84375 1138.84375 111.140625 C 1142.179688 111.40625 1145.515625 111.96875 1148.414062 112.652344 C 1151.386719 113.363281 1154.144531 114.308594 1156.316406 115.375 C 1158.566406 116.410156 1160.449219 117.683594 1161.753906 118.957031 C 1162.988281 120.261719 1163.785156 121.679688 1164.003906 123.074219 C 1164.21875 124.464844 1163.859375 125.914062 1162.988281 127.246094 C 1162.046875 128.609375 1160.59375 129.941406 1158.710938 131.097656 C 1156.824219 132.25 1154.359375 133.316406 1151.679688 134.175781 C 1148.996094 135.003906 1145.804688 135.714844 1142.542969 136.160156 C 1139.351562 136.632812 1135.800781 136.871094 1132.394531 136.871094 C 1128.984375 136.898438 1125.433594 136.664062 1122.242188 136.21875 C 1118.980469 135.804688 1115.789062 135.125 1113.109375 134.265625 C 1110.351562 133.433594 1107.886719 132.371094 1105.929688 131.246094 C 1104.046875 130.089844 1102.449219 128.757812 1101.582031 127.425781 C 1100.636719 126.09375 1100.203125 124.640625 1100.347656 123.25 C 1100.492188 121.859375 1101.292969 120.410156 1102.523438 119.136719 C 1103.757812 117.832031 1105.570312 116.558594 1107.742188 115.492188 C 1109.917969 114.425781 1112.671875 113.480469 1115.574219 112.769531 C 1118.472656 112.027344 1121.808594 111.464844 1125.144531 111.171875 C 1128.476562 110.875 1132.03125 110.785156 1135.4375 110.902344 C 1138.773438 111.050781 1142.324219 111.4375 1145.371094 112 C 1148.488281 112.59375 1151.460938 113.421875 1153.996094 114.367188 C 1156.460938 115.285156 1158.636719 116.46875 1160.234375 117.683594 C 1161.898438 118.898438 1163.058594 120.320312 1163.640625 121.679688 C 1164.21875 123.042969 1164.21875 124.523438 1163.710938 125.886719 C 1163.132812 127.246094 1162.046875 128.667969 1160.449219 129.882812 C 1158.855469 131.125 1156.679688 132.28125 1154.289062 133.257812 C 1151.824219 134.207031 1148.851562 135.035156 1145.804688 135.625 C 1142.6875 136.25 1140.078125 136.484375 1135.800781 136.898438 C 1128.625 137.640625 1115.9375 138.378906 1106.4375 139.179688 C 1097.449219 139.949219 1089.402344 141.015625 1080.265625 141.636719 C 1070.40625 142.316406 1059.75 142.644531 1049.308594 142.96875 C 1038.578125 143.265625 1027.269531 143.441406 1016.757812 143.503906 C 1006.96875 143.589844 999.210938 143.738281 988.191406 143.472656 C 973.039062 143.117188 952.523438 142.316406 934.253906 140.925781 C 914.824219 139.476562 890.828125 136.21875 875.023438 134.738281 C 864.511719 133.789062 857.839844 133.050781 848.703125 132.605469 C 839.0625 132.132812 828.550781 132.101562 818.546875 132.074219 C 808.613281 132.042969 798.679688 132.191406 789.039062 132.398438 C 779.902344 132.578125 771.277344 132.605469 762.285156 133.226562 C 753.007812 133.851562 743.582031 135.417969 734.230469 136.25 C 725.238281 137.046875 717.84375 137.582031 707.332031 138.171875 C 692.761719 139 669.414062 139.800781 654.84375 140.394531 C 644.476562 140.808594 637.152344 141.105469 628.089844 141.371094 C 618.8125 141.636719 609.097656 141.875 599.816406 141.960938 C 590.972656 142.050781 582.632812 142.050781 573.644531 141.902344 C 564.148438 141.753906 556.679688 141.546875 544.355469 140.984375 C 523.257812 140.007812 479.832031 137.167969 458.804688 135.6875 C 446.554688 134.796875 439.375 134.234375 429.734375 133.316406 C 419.945312 132.371094 410.015625 130.179688 400.515625 130.058594 C 391.746094 129.972656 383.335938 131.394531 374.78125 132.339844 C 366.007812 133.316406 358.902344 134.707031 348.460938 135.953125 C 333.382812 137.699219 308.226562 140.246094 292.929688 141.460938 C 282.269531 142.289062 277.125 142.730469 265.597656 143.027344 C 245.949219 143.5625 209.410156 143.769531 185.628906 142.730469 C 166.273438 141.902344 147.859375 139.296875 133.285156 138.351562 C 123.0625 137.667969 115.667969 137.3125 106.898438 137.136719 C 98.195312 136.957031 88.917969 136.160156 80.722656 137.226562 C 72.097656 138.351562 66.515625 142.289062 56.800781 144.035156 C 44.621094 146.226562 20.40625 147.882812 12.214844 148.179688 C 9.167969 148.269531 7.9375 148.179688 5.832031 148.03125 C 3.804688 147.882812 1.699219 147.617188 -0.257812 147.261719 C -2.140625 146.90625 -4.027344 146.460938 -5.695312 145.929688 C -7.363281 145.398438 -8.882812 144.773438 -10.1875 144.09375 C -11.492188 143.414062 -12.652344 142.671875 -13.523438 141.875 C -14.394531 141.105469 -15.046875 140.246094 -15.410156 139.386719 C -15.84375 138.558594 -15.988281 137.667969 -15.84375 136.8125 C -15.699219 135.953125 -15.335938 135.0625 -14.757812 134.234375 C -14.105469 133.433594 -13.234375 132.605469 -12.148438 131.867188 C -11.058594 131.125 -9.679688 130.445312 -8.230469 129.824219 C -6.710938 129.203125 -5.042969 128.667969 -3.230469 128.222656 C -1.417969 127.75 2.570312 127.128906 2.570312 127.128906 " clip-rule="nonzero"></path></clipPath></defs><g clip-path="url(#486954d5a2)"><g clip-path="url(#e9fea11552)"><path fill="#8100e6" d="M -38.601562 75.636719 L 1204.625 75.636719 L 1204.625 120.550781 L -38.601562 120.550781 Z M -38.601562 75.636719 " fill-opacity="1" fill-rule="nonzero"></path></g></g><g clip-path="url(#8685d8e955)"><g clip-path="url(#7f9e806f38)"><path fill="#9747ff" d="M -38.601562 81.984375 L 1137.476562 81.984375 L 1137.476562 133.054688 L -38.601562 133.054688 Z M -38.601562 81.984375 " fill-opacity="1" fill-rule="nonzero"></path></g></g><g clip-path="url(#b2243c7a08)"><g clip-path="url(#3781217199)"><path fill="#6400e6" d="M -29.109375 93.496094 L 1162.433594 93.496094 L 1162.433594 139.476562 L -29.109375 139.476562 Z M -29.109375 93.496094 " fill-opacity="1" fill-rule="nonzero"></path></g></g><g clip-path="url(#84544f175e)"><g clip-path="url(#b4f17a3342)"><path fill="#8100e6" d="M -18.742188 103.859375 L 1166.921875 103.859375 L 1166.921875 149.363281 L -18.742188 149.363281 Z M -18.742188 103.859375 " fill-opacity="1" fill-rule="nonzero"></path></g></g></svg> 